<svg viewBox="0 0 256 256" xmlns="http://www.w3.org/2000/svg" >
<path fill="#b8c6c9" d="m 218.94,160.75 c -3.09,0 -6.08,0.67 -8.73,1.87 -1.16,-0.70 -1.74,-1.38 -3.49,-2.05 V 82.59 L 127.78,36.65 61.48,75.78 C 60.36,75.13 59.23,74.44 58.07,73.73 57.97,62.21 48.58,52.87 37.03,52.87 25.43,52.87 16,62.31 16,73.91 c 0,11.60 9.44,21.04 21.04,21.04 3.09,0 6.15,-0.67 8.79,-1.87 1.09,0.66 2.50,1.31 3.37,1.94 v 78.68 l 78.82,45.62 66.93,-39.15 c 0.98,0.57 1.95,1.17 2.96,1.79 0.09,11.52 9.48,20.86 21.02,20.86 11.60,0 21.03,-9.44 21.03,-21.04 0,-11.60 -9.44,-21.04 -21.05,-21.04" />
<g fill="#759bc5">
<path d="m 127.89,206.28 67.50,-39.49 V 89.21 L 127.88,49.91 60.41,89.76 v 77.47 l 67.47,39.04" />
<circle cx="37" cy="74" r="9" />
<circle cx="219" cy="182" r="9" />
</g>
<path fill="#343532" d="m 219.08,187.62 c -3.16,0 -5.74,-2.57 -5.74,-5.74 0,-3.16 2.57,-5.74 5.74,-5.74 3.16,0 5.74,2.57 5.74,5.74 0,3.16 -2.57,5.74 -5.74,5.74 z m -78.01,6.43 c 6.25,-9.00 13.66,-21.91 18.21,-37.41 9.68,1.98 18.72,5.20 28.52,10.09 z M 93.88,104.75 c -1.51,6.30 -2.54,13.01 -2.77,20.07 -8.80,0.00 -17.37,0.00 -27.00,0.00 V 93.84 c 9.63,5.19 19.77,8.69 29.78,10.91 z M 37.02,79.64 c -3.16,0 -5.74,-2.57 -5.74,-5.74 0,-3.16 2.57,-5.74 5.74,-5.74 3.16,0 5.74,2.57 5.74,5.74 0,3.16 -2.57,5.74 -5.74,5.74 z M 113.52,62.88 c -6.28,8.77 -13.46,21.07 -17.95,35.99 -9.05,-1.96 -17.59,-5.04 -26.78,-9.59 z m 16.96,84.94 c 0.00,-2.35 0.01,-4.74 0.01,-7.16 4.96,-0.99 8.90,-4.82 10.08,-9.71 6.06,0.00 11.86,0.00 17.54,0.01 -0.23,6.54 -1.17,12.84 -2.61,18.80 -7.68,-1.25 -15.85,-1.84 -25.03,-1.93 v 0 z m -0.01,6.12 c 8.63,0.08 16.26,0.61 23.43,1.72 -6.06,19.97 -17.08,35.58 -23.30,43.30 -0.10,-14.28 -0.14,-28.98 -0.12,-45.03 z m -34.89,3.54 c 4.49,14.98 11.69,27.23 17.98,35.93 L 67.64,166.89 c 5.62,-2.64 15.26,-6.55 27.94,-9.39 v 0 z M 115.30,130.94 c 1.16,4.81 4.99,8.59 9.84,9.66 -0.00,2.44 -0.01,4.85 -0.02,7.23 -9.45,0.15 -18.12,1.15 -25.85,2.59 -1.48,-6.11 -2.46,-12.62 -2.67,-19.48 6.09,-0.00 12.26,-0.00 18.70,-0.01 v 0 z m 9.82,-22.99 c 0.00,2.41 0.01,4.82 0.02,7.23 -4.83,1.06 -8.66,4.82 -9.83,9.62 -6.44,0.00 -12.60,0.00 -18.70,0.01 0.23,-6.69 1.18,-13.06 2.62,-19.03 7.94,1.38 16.37,2.04 25.89,2.16 v 0 z m -0.06,-47.02 c 0.00,13.43 0.01,27.19 0.04,40.89 -8.96,-0.11 -16.85,-0.69 -24.26,-1.93 6.23,-20.39 17.74,-35.59 24.21,-43.00 l 0.00,4.04 z m 34.09,37.75 C 154.61,83.51 147.33,70.89 141.16,62.04 l 47.05,27.36 c -5.81,2.63 -15.84,6.55 -29.05,9.28 v 0 z m -28.73,-37.76 -0.00,-4.11 c 6.13,7.50 17.23,22.94 23.37,42.87 -7.05,1.19 -14.87,2.00 -23.32,2.12 -0.02,-13.69 -0.03,-27.45 -0.04,-40.89 v 0 z m -2.47,73.85 c -3.80,0 -6.89,-3.09 -6.89,-6.89 0,-3.80 3.09,-6.89 6.89,-6.89 3.80,0 6.89,3.09 6.89,6.89 0,3.80 -3.09,6.89 -6.89,6.89 z m -2.69,64.61 c -6.39,-7.30 -18.00,-22.54 -24.32,-43.00 7.27,-1.34 15.39,-2.27 24.19,-2.43 -0.02,16.20 0.02,31.02 0.13,45.43 z m 15.33,-74.58 c -1.19,-4.87 -5.12,-8.69 -10.07,-9.68 -0.00,-2.38 -0.01,-4.78 -0.02,-7.18 9.09,-0.11 17.46,-0.98 24.96,-2.27 1.48,6.05 2.45,12.47 2.69,19.15 -5.68,-0.00 -11.48,-0.00 -17.55,-0.01 v 0 z m 50.49,-0.00 c -8.75,0.01 -18.55,0.01 -27.85,0.01 -0.22,-7.05 -1.36,-13.80 -2.88,-20.16 14.28,-2.96 25.48,-7.25 30.73,-10.05 V 124.80 Z m -126.97,6.15 c 9.63,0 18.24,0 27.04,-0.00 0.21,7.25 1.16,14.13 2.69,20.56 -13.66,3.05 -23.60,7.33 -29.73,10.14 z m 96.46,19.78 c 1.46,-6.25 2.28,-12.88 2.51,-19.79 9.30,-8.7e-4 19.24,-0.00 28.00,-0.02 v 30.91 c -9.63,-5.36 -20.07,-8.91 -30.51,-11.09 v 0 z m 58.51,17.72 c -3.59,0 -7.03,1.43 -9.44,3.75 -3.63,-2.28 -7.17,-4.36 -10.67,-6.27 V 86.99 L 127.75,45.49 60.74,85.08 c -3.57,-2.00 -7.24,-4.21 -11.15,-6.66 0.50,-1.41 0.81,-2.92 0.81,-4.50 0,-7.39 -6.00,-13.40 -13.39,-13.40 -7.39,0 -13.39,6.01 -13.39,13.40 0,7.39 6.01,13.40 13.40,13.40 3.59,0 6.66,-1.43 9.07,-3.75 3.57,2.24 7.48,4.28 10.11,6.16 v 79.64 l 71.53,41.22 67.90,-39.62 c 3.42,1.93 7.03,4.05 10.76,6.40 -0.50,1.41 -0.77,2.92 -0.77,4.50 0,7.39 6.02,13.40 13.41,13.40 7.39,0 13.40,-6.01 13.40,-13.40 0,-7.39 -6.00,-13.40 -13.39,-13.40 v 0 z" />
</svg>
